<svg xmlns="http://www.w3.org/2000/svg" viewBox="0 0 24 24" width="24" height="24">

  <defs>
    <linearGradient id="premiumRed" x1="0%" y1="0%" x2="100%" y2="100%">
      <stop offset="0%" stop-color="#ef4444" />
      <stop offset="100%" stop-color="#2563eb" />
    </linearGradient>
    <linearGradient id="premiumRedLight" x1="0%" y1="0%" x2="100%" y2="100%">
      <stop offset="0%" stop-color="#fca5a5" />
      <stop offset="100%" stop-color="#ef4444" />
    </linearGradient>
    <filter id="glow" x="-20%" y="-20%" width="140%" height="140%">
      <feGaussianBlur stdDeviation="1" result="blur" />
      <feComposite in="SourceGraphic" in2="blur" operator="over" />
    </filter>
  </defs>


    <path d="M2 3h6a4 4 0 0 1 4 4v14a3 3 0 0 0-3-3H2z" fill="url(#premiumRed)" opacity="0.1"/>
    <path d="M22 3h-6a4 4 0 0 0-4 4v14a3 3 0 0 1 3-3h7z" fill="url(#premiumRed)" opacity="0.15"/>
    <path d="M2 3h6a4 4 0 0 1 4 4v14a3 3 0 0 0-3-3H2z" fill="none" stroke="url(#premiumRed)" stroke-width="2" stroke-linecap="round" stroke-linejoin="round"/>
    <path d="M22 3h-6a4 4 0 0 0-4 4v14a3 3 0 0 1 3-3h7z" fill="none" stroke="url(#premiumRed)" stroke-width="2" stroke-linecap="round" stroke-linejoin="round"/>
    <line x1="14" y1="7" x2="19" y2="7" stroke="url(#premiumRed)" stroke-width="2" stroke-linecap="round"/>
    <line x1="14" y1="11" x2="19" y2="11" stroke="url(#premiumRed)" stroke-width="2" stroke-linecap="round"/>
    <line x1="14" y1="15" x2="17" y2="15" stroke="url(#premiumRed)" stroke-width="2" stroke-linecap="round"/>
  
</svg>